<svg width="54" height="70" viewBox="0 0 54 70" fill="none" xmlns="http://www.w3.org/2000/svg">
<path d="M53.1455 46.1097C52.7329 45.6257 52.006 45.5657 51.5212 45.9783L28.1131 65.8911V1.53718C28.1131 0.900213 27.5976 0.384644 26.9606 0.384644C26.3236 0.384644 25.808 0.900213 25.808 1.53718V65.8911L2.39999 45.9783C1.91592 45.5665 1.18829 45.6241 0.775678 46.1097C0.363069 46.5946 0.422233 47.3214 0.906299 47.734L26.2145 69.2627C26.2268 69.2735 26.2437 69.2773 26.256 69.2873C26.3252 69.3411 26.3958 69.3933 26.4773 69.431C26.4973 69.4402 26.518 69.4433 26.538 69.4509C26.5626 69.4609 26.5864 69.4678 26.611 69.4755C26.7255 69.5124 26.843 69.537 26.9606 69.537C27.0781 69.537 27.1957 69.5124 27.3102 69.4755C27.3348 69.4678 27.3586 69.4609 27.3824 69.4509C27.4024 69.4433 27.4231 69.4394 27.4431 69.4302C27.5246 69.3925 27.5953 69.3403 27.6644 69.2865C27.6775 69.2765 27.6936 69.2727 27.7059 69.2619L53.0133 47.7333C53.4989 47.3214 53.5581 46.5946 53.1455 46.1097Z" fill="#F4F4F4"/>
</svg>
