<svg width="12" height="12" viewBox="0 0 12 12" fill="none" xmlns="http://www.w3.org/2000/svg">
<path d="M3.81384 0.69527C3.80301 0.831138 3.90407 0.950359 4.04005 0.961302L10.6042 1.49092L0.853016 11.2421C0.7565 11.3387 0.7565 11.4949 0.853016 11.5914C0.949533 11.6879 1.10578 11.6879 1.20229 11.5914L10.9535 1.8402L11.4831 8.40438C11.4941 8.54014 11.6131 8.64166 11.7492 8.6306C11.8852 8.61965 11.9863 8.50055 11.9755 8.36468L11.4028 1.26773C11.4026 1.26424 11.4006 1.2611 11.4002 1.25772C11.3979 1.23909 11.3951 1.22046 11.3885 1.20242C11.3869 1.19799 11.3842 1.19438 11.3823 1.19019C11.3801 1.18495 11.3775 1.1803 11.375 1.17541C11.3632 1.15247 11.3491 1.13093 11.3313 1.11312C11.3135 1.09531 11.292 1.08122 11.269 1.06946C11.2641 1.0669 11.2595 1.06434 11.2544 1.06224C11.2502 1.06038 11.2464 1.05782 11.242 1.05619C11.224 1.04955 11.2053 1.04676 11.1867 1.04443C11.1832 1.04396 11.1802 1.0421 11.1767 1.04187L4.07987 0.469288C3.94389 0.458111 3.82478 0.559285 3.81384 0.69527Z" fill="#F4F4F4"/>
</svg>
